<?xml version="1.0" encoding="utf-8" standalone="no"?>
<!DOCTYPE svg PUBLIC "-//W3C//DTD SVG 1.1//EN"
  "http://www.w3.org/Graphics/SVG/1.1/DTD/svg11.dtd">
<svg xmlns:xlink="http://www.w3.org/1999/xlink" width="720pt" height="360pt" viewBox="0 0 720 360" xmlns="http://www.w3.org/2000/svg" version="1.1">
 <metadata>
  <rdf:RDF xmlns:dc="http://purl.org/dc/elements/1.1/" xmlns:cc="http://creativecommons.org/ns#" xmlns:rdf="http://www.w3.org/1999/02/22-rdf-syntax-ns#">
   <cc:Work>
    <dc:type rdf:resource="http://purl.org/dc/dcmitype/StillImage"/>
    <dc:date>2026-03-06T10:23:34.809554</dc:date>
    <dc:format>image/svg+xml</dc:format>
    <dc:creator>
     <cc:Agent>
      <dc:title>Matplotlib v3.10.8, https://matplotlib.org/</dc:title>
     </cc:Agent>
    </dc:creator>
   </cc:Work>
  </rdf:RDF>
 </metadata>
 <defs>
  <style type="text/css">*{stroke-linejoin: round; stroke-linecap: butt}</style>
 </defs>
 <g id="figure_1">
  <g id="patch_1">
   <path d="M 0 360 
L 720 360 
L 720 0 
L 0 0 
z
" style="fill: #0d1117"/>
  </g>
  <g id="axes_1">
   <g id="patch_2">
    <path d="M 57.89 279.479373 
L 709.2 279.479373 
L 709.2 42.32 
L 57.89 42.32 
z
"/>
   </g>
   <g id="matplotlib.axis_1">
    <g id="xtick_1">
     <g id="line2d_1">
      <path d="M 151.676198 279.479373 
L 151.676198 42.32 
" clip-path="url(#pa7620acac0)" style="fill: none; stroke: #ffffff; stroke-opacity: 0.3; stroke-width: 0.8; stroke-linecap: square"/>
     </g>
     <g id="line2d_2">
      <defs>
       <path id="m3c78e96a6d" d="M 0 0 
L 0 3.5 
" style="stroke: #ffffff; stroke-width: 0.8"/>
      </defs>
      <g>
       <use xlink:href="#m3c78e96a6d" x="151.676198" y="279.479373" style="fill: #ffffff; stroke: #ffffff; stroke-width: 0.8"/>
      </g>
     </g>
     <g id="text_1">
      <!-- 2026-01-01 -->
      <g style="fill: #ffffff" transform="translate(133.080394 332.946233) rotate(-45) scale(0.1 -0.1)">
       <defs>
        <path id="DejaVuSans-32" d="M 1228 531 
L 3431 531 
L 3431 0 
L 469 0 
L 469 531 
Q 828 903 1448 1529 
Q 2069 2156 2228 2338 
Q 2531 2678 2651 2914 
Q 2772 3150 2772 3378 
Q 2772 3750 2511 3984 
Q 2250 4219 1831 4219 
Q 1534 4219 1204 4116 
Q 875 4013 500 3803 
L 500 4441 
Q 881 4594 1212 4672 
Q 1544 4750 1819 4750 
Q 2544 4750 2975 4387 
Q 3406 4025 3406 3419 
Q 3406 3131 3298 2873 
Q 3191 2616 2906 2266 
Q 2828 2175 2409 1742 
Q 1991 1309 1228 531 
z
" transform="scale(0.015625)"/>
        <path id="DejaVuSans-30" d="M 2034 4250 
Q 1547 4250 1301 3770 
Q 1056 3291 1056 2328 
Q 1056 1369 1301 889 
Q 1547 409 2034 409 
Q 2525 409 2770 889 
Q 3016 1369 3016 2328 
Q 3016 3291 2770 3770 
Q 2525 4250 2034 4250 
z
M 2034 4750 
Q 2819 4750 3233 4129 
Q 3647 3509 3647 2328 
Q 3647 1150 3233 529 
Q 2819 -91 2034 -91 
Q 1250 -91 836 529 
Q 422 1150 422 2328 
Q 422 3509 836 4129 
Q 1250 4750 2034 4750 
z
" transform="scale(0.015625)"/>
        <path id="DejaVuSans-36" d="M 2113 2584 
Q 1688 2584 1439 2293 
Q 1191 2003 1191 1497 
Q 1191 994 1439 701 
Q 1688 409 2113 409 
Q 2538 409 2786 701 
Q 3034 994 3034 1497 
Q 3034 2003 2786 2293 
Q 2538 2584 2113 2584 
z
M 3366 4563 
L 3366 3988 
Q 3128 4100 2886 4159 
Q 2644 4219 2406 4219 
Q 1781 4219 1451 3797 
Q 1122 3375 1075 2522 
Q 1259 2794 1537 2939 
Q 1816 3084 2150 3084 
Q 2853 3084 3261 2657 
Q 3669 2231 3669 1497 
Q 3669 778 3244 343 
Q 2819 -91 2113 -91 
Q 1303 -91 875 529 
Q 447 1150 447 2328 
Q 447 3434 972 4092 
Q 1497 4750 2381 4750 
Q 2619 4750 2861 4703 
Q 3103 4656 3366 4563 
z
" transform="scale(0.015625)"/>
        <path id="DejaVuSans-2d" d="M 313 2009 
L 1997 2009 
L 1997 1497 
L 313 1497 
L 313 2009 
z
" transform="scale(0.015625)"/>
        <path id="DejaVuSans-31" d="M 794 531 
L 1825 531 
L 1825 4091 
L 703 3866 
L 703 4441 
L 1819 4666 
L 2450 4666 
L 2450 531 
L 3481 531 
L 3481 0 
L 794 0 
L 794 531 
z
" transform="scale(0.015625)"/>
       </defs>
       <use xlink:href="#DejaVuSans-32"/>
       <use xlink:href="#DejaVuSans-30" transform="translate(63.623047 0)"/>
       <use xlink:href="#DejaVuSans-32" transform="translate(127.246094 0)"/>
       <use xlink:href="#DejaVuSans-36" transform="translate(190.869141 0)"/>
       <use xlink:href="#DejaVuSans-2d" transform="translate(254.492188 0)"/>
       <use xlink:href="#DejaVuSans-30" transform="translate(290.576172 0)"/>
       <use xlink:href="#DejaVuSans-31" transform="translate(354.199219 0)"/>
       <use xlink:href="#DejaVuSans-2d" transform="translate(417.822266 0)"/>
       <use xlink:href="#DejaVuSans-30" transform="translate(453.90625 0)"/>
       <use xlink:href="#DejaVuSans-31" transform="translate(517.529297 0)"/>
      </g>
     </g>
    </g>
    <g id="xtick_2">
     <g id="line2d_3">
      <path d="M 266.38302 279.479373 
L 266.38302 42.32 
" clip-path="url(#pa7620acac0)" style="fill: none; stroke: #ffffff; stroke-opacity: 0.3; stroke-width: 0.8; stroke-linecap: square"/>
     </g>
     <g id="line2d_4">
      <g>
       <use xlink:href="#m3c78e96a6d" x="266.38302" y="279.479373" style="fill: #ffffff; stroke: #ffffff; stroke-width: 0.8"/>
      </g>
     </g>
     <g id="text_2">
      <!-- 2026-01-15 -->
      <g style="fill: #ffffff" transform="translate(247.787216 332.946233) rotate(-45) scale(0.1 -0.1)">
       <defs>
        <path id="DejaVuSans-35" d="M 691 4666 
L 3169 4666 
L 3169 4134 
L 1269 4134 
L 1269 2991 
Q 1406 3038 1543 3061 
Q 1681 3084 1819 3084 
Q 2600 3084 3056 2656 
Q 3513 2228 3513 1497 
Q 3513 744 3044 326 
Q 2575 -91 1722 -91 
Q 1428 -91 1123 -41 
Q 819 9 494 109 
L 494 744 
Q 775 591 1075 516 
Q 1375 441 1709 441 
Q 2250 441 2565 725 
Q 2881 1009 2881 1497 
Q 2881 1984 2565 2268 
Q 2250 2553 1709 2553 
Q 1456 2553 1204 2497 
Q 953 2441 691 2322 
L 691 4666 
z
" transform="scale(0.015625)"/>
       </defs>
       <use xlink:href="#DejaVuSans-32"/>
       <use xlink:href="#DejaVuSans-30" transform="translate(63.623047 0)"/>
       <use xlink:href="#DejaVuSans-32" transform="translate(127.246094 0)"/>
       <use xlink:href="#DejaVuSans-36" transform="translate(190.869141 0)"/>
       <use xlink:href="#DejaVuSans-2d" transform="translate(254.492188 0)"/>
       <use xlink:href="#DejaVuSans-30" transform="translate(290.576172 0)"/>
       <use xlink:href="#DejaVuSans-31" transform="translate(354.199219 0)"/>
       <use xlink:href="#DejaVuSans-2d" transform="translate(417.822266 0)"/>
       <use xlink:href="#DejaVuSans-31" transform="translate(453.90625 0)"/>
       <use xlink:href="#DejaVuSans-35" transform="translate(517.529297 0)"/>
      </g>
     </g>
    </g>
    <g id="xtick_3">
     <g id="line2d_5">
      <path d="M 405.669875 279.479373 
L 405.669875 42.32 
" clip-path="url(#pa7620acac0)" style="fill: none; stroke: #ffffff; stroke-opacity: 0.3; stroke-width: 0.8; stroke-linecap: square"/>
     </g>
     <g id="line2d_6">
      <g>
       <use xlink:href="#m3c78e96a6d" x="405.669875" y="279.479373" style="fill: #ffffff; stroke: #ffffff; stroke-width: 0.8"/>
      </g>
     </g>
     <g id="text_3">
      <!-- 2026-02-01 -->
      <g style="fill: #ffffff" transform="translate(387.074071 332.946233) rotate(-45) scale(0.1 -0.1)">
       <use xlink:href="#DejaVuSans-32"/>
       <use xlink:href="#DejaVuSans-30" transform="translate(63.623047 0)"/>
       <use xlink:href="#DejaVuSans-32" transform="translate(127.246094 0)"/>
       <use xlink:href="#DejaVuSans-36" transform="translate(190.869141 0)"/>
       <use xlink:href="#DejaVuSans-2d" transform="translate(254.492188 0)"/>
       <use xlink:href="#DejaVuSans-30" transform="translate(290.576172 0)"/>
       <use xlink:href="#DejaVuSans-32" transform="translate(354.199219 0)"/>
       <use xlink:href="#DejaVuSans-2d" transform="translate(417.822266 0)"/>
       <use xlink:href="#DejaVuSans-30" transform="translate(453.90625 0)"/>
       <use xlink:href="#DejaVuSans-31" transform="translate(517.529297 0)"/>
      </g>
     </g>
    </g>
    <g id="xtick_4">
     <g id="line2d_7">
      <path d="M 520.376697 279.479373 
L 520.376697 42.32 
" clip-path="url(#pa7620acac0)" style="fill: none; stroke: #ffffff; stroke-opacity: 0.3; stroke-width: 0.8; stroke-linecap: square"/>
     </g>
     <g id="line2d_8">
      <g>
       <use xlink:href="#m3c78e96a6d" x="520.376697" y="279.479373" style="fill: #ffffff; stroke: #ffffff; stroke-width: 0.8"/>
      </g>
     </g>
     <g id="text_4">
      <!-- 2026-02-15 -->
      <g style="fill: #ffffff" transform="translate(501.780893 332.946233) rotate(-45) scale(0.1 -0.1)">
       <use xlink:href="#DejaVuSans-32"/>
       <use xlink:href="#DejaVuSans-30" transform="translate(63.623047 0)"/>
       <use xlink:href="#DejaVuSans-32" transform="translate(127.246094 0)"/>
       <use xlink:href="#DejaVuSans-36" transform="translate(190.869141 0)"/>
       <use xlink:href="#DejaVuSans-2d" transform="translate(254.492188 0)"/>
       <use xlink:href="#DejaVuSans-30" transform="translate(290.576172 0)"/>
       <use xlink:href="#DejaVuSans-32" transform="translate(354.199219 0)"/>
       <use xlink:href="#DejaVuSans-2d" transform="translate(417.822266 0)"/>
       <use xlink:href="#DejaVuSans-31" transform="translate(453.90625 0)"/>
       <use xlink:href="#DejaVuSans-35" transform="translate(517.529297 0)"/>
      </g>
     </g>
    </g>
    <g id="xtick_5">
     <g id="line2d_9">
      <path d="M 635.083518 279.479373 
L 635.083518 42.32 
" clip-path="url(#pa7620acac0)" style="fill: none; stroke: #ffffff; stroke-opacity: 0.3; stroke-width: 0.8; stroke-linecap: square"/>
     </g>
     <g id="line2d_10">
      <g>
       <use xlink:href="#m3c78e96a6d" x="635.083518" y="279.479373" style="fill: #ffffff; stroke: #ffffff; stroke-width: 0.8"/>
      </g>
     </g>
     <g id="text_5">
      <!-- 2026-03-01 -->
      <g style="fill: #ffffff" transform="translate(616.487715 332.946233) rotate(-45) scale(0.1 -0.1)">
       <defs>
        <path id="DejaVuSans-33" d="M 2597 2516 
Q 3050 2419 3304 2112 
Q 3559 1806 3559 1356 
Q 3559 666 3084 287 
Q 2609 -91 1734 -91 
Q 1441 -91 1130 -33 
Q 819 25 488 141 
L 488 750 
Q 750 597 1062 519 
Q 1375 441 1716 441 
Q 2309 441 2620 675 
Q 2931 909 2931 1356 
Q 2931 1769 2642 2001 
Q 2353 2234 1838 2234 
L 1294 2234 
L 1294 2753 
L 1863 2753 
Q 2328 2753 2575 2939 
Q 2822 3125 2822 3475 
Q 2822 3834 2567 4026 
Q 2313 4219 1838 4219 
Q 1578 4219 1281 4162 
Q 984 4106 628 3988 
L 628 4550 
Q 988 4650 1302 4700 
Q 1616 4750 1894 4750 
Q 2613 4750 3031 4423 
Q 3450 4097 3450 3541 
Q 3450 3153 3228 2886 
Q 3006 2619 2597 2516 
z
" transform="scale(0.015625)"/>
       </defs>
       <use xlink:href="#DejaVuSans-32"/>
       <use xlink:href="#DejaVuSans-30" transform="translate(63.623047 0)"/>
       <use xlink:href="#DejaVuSans-32" transform="translate(127.246094 0)"/>
       <use xlink:href="#DejaVuSans-36" transform="translate(190.869141 0)"/>
       <use xlink:href="#DejaVuSans-2d" transform="translate(254.492188 0)"/>
       <use xlink:href="#DejaVuSans-30" transform="translate(290.576172 0)"/>
       <use xlink:href="#DejaVuSans-33" transform="translate(354.199219 0)"/>
       <use xlink:href="#DejaVuSans-2d" transform="translate(417.822266 0)"/>
       <use xlink:href="#DejaVuSans-30" transform="translate(453.90625 0)"/>
       <use xlink:href="#DejaVuSans-31" transform="translate(517.529297 0)"/>
      </g>
     </g>
    </g>
    <g id="text_6">
     <!-- Date -->
     <g style="fill: #ffffff" transform="translate(370.399141 346.775075) scale(0.11 -0.11)">
      <defs>
       <path id="DejaVuSans-44" d="M 1259 4147 
L 1259 519 
L 2022 519 
Q 2988 519 3436 956 
Q 3884 1394 3884 2338 
Q 3884 3275 3436 3711 
Q 2988 4147 2022 4147 
L 1259 4147 
z
M 628 4666 
L 1925 4666 
Q 3281 4666 3915 4102 
Q 4550 3538 4550 2338 
Q 4550 1131 3912 565 
Q 3275 0 1925 0 
L 628 0 
L 628 4666 
z
" transform="scale(0.015625)"/>
       <path id="DejaVuSans-61" d="M 2194 1759 
Q 1497 1759 1228 1600 
Q 959 1441 959 1056 
Q 959 750 1161 570 
Q 1363 391 1709 391 
Q 2188 391 2477 730 
Q 2766 1069 2766 1631 
L 2766 1759 
L 2194 1759 
z
M 3341 1997 
L 3341 0 
L 2766 0 
L 2766 531 
Q 2569 213 2275 61 
Q 1981 -91 1556 -91 
Q 1019 -91 701 211 
Q 384 513 384 1019 
Q 384 1609 779 1909 
Q 1175 2209 1959 2209 
L 2766 2209 
L 2766 2266 
Q 2766 2663 2505 2880 
Q 2244 3097 1772 3097 
Q 1472 3097 1187 3025 
Q 903 2953 641 2809 
L 641 3341 
Q 956 3463 1253 3523 
Q 1550 3584 1831 3584 
Q 2591 3584 2966 3190 
Q 3341 2797 3341 1997 
z
" transform="scale(0.015625)"/>
       <path id="DejaVuSans-74" d="M 1172 4494 
L 1172 3500 
L 2356 3500 
L 2356 3053 
L 1172 3053 
L 1172 1153 
Q 1172 725 1289 603 
Q 1406 481 1766 481 
L 2356 481 
L 2356 0 
L 1766 0 
Q 1100 0 847 248 
Q 594 497 594 1153 
L 594 3053 
L 172 3053 
L 172 3500 
L 594 3500 
L 594 4494 
L 1172 4494 
z
" transform="scale(0.015625)"/>
       <path id="DejaVuSans-65" d="M 3597 1894 
L 3597 1613 
L 953 1613 
Q 991 1019 1311 708 
Q 1631 397 2203 397 
Q 2534 397 2845 478 
Q 3156 559 3463 722 
L 3463 178 
Q 3153 47 2828 -22 
Q 2503 -91 2169 -91 
Q 1331 -91 842 396 
Q 353 884 353 1716 
Q 353 2575 817 3079 
Q 1281 3584 2069 3584 
Q 2775 3584 3186 3129 
Q 3597 2675 3597 1894 
z
M 3022 2063 
Q 3016 2534 2758 2815 
Q 2500 3097 2075 3097 
Q 1594 3097 1305 2825 
Q 1016 2553 972 2059 
L 3022 2063 
z
" transform="scale(0.015625)"/>
      </defs>
      <use xlink:href="#DejaVuSans-44"/>
      <use xlink:href="#DejaVuSans-61" transform="translate(77.001953 0)"/>
      <use xlink:href="#DejaVuSans-74" transform="translate(138.28125 0)"/>
      <use xlink:href="#DejaVuSans-65" transform="translate(177.490234 0)"/>
     </g>
    </g>
   </g>
   <g id="matplotlib.axis_2">
    <g id="ytick_1">
     <g id="line2d_11">
      <path d="M 57.89 245.974416 
L 709.2 245.974416 
" clip-path="url(#pa7620acac0)" style="fill: none; stroke: #ffffff; stroke-opacity: 0.3; stroke-width: 0.8; stroke-linecap: square"/>
     </g>
     <g id="line2d_12">
      <defs>
       <path id="mefb69987c8" d="M 0 0 
L -3.5 0 
" style="stroke: #ffffff; stroke-width: 0.8"/>
      </defs>
      <g>
       <use xlink:href="#mefb69987c8" x="57.89" y="245.974416" style="fill: #ffffff; stroke: #ffffff; stroke-width: 0.8"/>
      </g>
     </g>
     <g id="text_7">
      <!-- 1000 -->
      <g style="fill: #ffffff" transform="translate(25.44 249.773634) scale(0.1 -0.1)">
       <use xlink:href="#DejaVuSans-31"/>
       <use xlink:href="#DejaVuSans-30" transform="translate(63.623047 0)"/>
       <use xlink:href="#DejaVuSans-30" transform="translate(127.246094 0)"/>
       <use xlink:href="#DejaVuSans-30" transform="translate(190.869141 0)"/>
      </g>
     </g>
    </g>
    <g id="ytick_2">
     <g id="line2d_13">
      <path d="M 57.89 201.676197 
L 709.2 201.676197 
" clip-path="url(#pa7620acac0)" style="fill: none; stroke: #ffffff; stroke-opacity: 0.3; stroke-width: 0.8; stroke-linecap: square"/>
     </g>
     <g id="line2d_14">
      <g>
       <use xlink:href="#mefb69987c8" x="57.89" y="201.676197" style="fill: #ffffff; stroke: #ffffff; stroke-width: 0.8"/>
      </g>
     </g>
     <g id="text_8">
      <!-- 2000 -->
      <g style="fill: #ffffff" transform="translate(25.44 205.475416) scale(0.1 -0.1)">
       <use xlink:href="#DejaVuSans-32"/>
       <use xlink:href="#DejaVuSans-30" transform="translate(63.623047 0)"/>
       <use xlink:href="#DejaVuSans-30" transform="translate(127.246094 0)"/>
       <use xlink:href="#DejaVuSans-30" transform="translate(190.869141 0)"/>
      </g>
     </g>
    </g>
    <g id="ytick_3">
     <g id="line2d_15">
      <path d="M 57.89 157.377978 
L 709.2 157.377978 
" clip-path="url(#pa7620acac0)" style="fill: none; stroke: #ffffff; stroke-opacity: 0.3; stroke-width: 0.8; stroke-linecap: square"/>
     </g>
     <g id="line2d_16">
      <g>
       <use xlink:href="#mefb69987c8" x="57.89" y="157.377978" style="fill: #ffffff; stroke: #ffffff; stroke-width: 0.8"/>
      </g>
     </g>
     <g id="text_9">
      <!-- 3000 -->
      <g style="fill: #ffffff" transform="translate(25.44 161.177197) scale(0.1 -0.1)">
       <use xlink:href="#DejaVuSans-33"/>
       <use xlink:href="#DejaVuSans-30" transform="translate(63.623047 0)"/>
       <use xlink:href="#DejaVuSans-30" transform="translate(127.246094 0)"/>
       <use xlink:href="#DejaVuSans-30" transform="translate(190.869141 0)"/>
      </g>
     </g>
    </g>
    <g id="ytick_4">
     <g id="line2d_17">
      <path d="M 57.89 113.07976 
L 709.2 113.07976 
" clip-path="url(#pa7620acac0)" style="fill: none; stroke: #ffffff; stroke-opacity: 0.3; stroke-width: 0.8; stroke-linecap: square"/>
     </g>
     <g id="line2d_18">
      <g>
       <use xlink:href="#mefb69987c8" x="57.89" y="113.07976" style="fill: #ffffff; stroke: #ffffff; stroke-width: 0.8"/>
      </g>
     </g>
     <g id="text_10">
      <!-- 4000 -->
      <g style="fill: #ffffff" transform="translate(25.44 116.878978) scale(0.1 -0.1)">
       <defs>
        <path id="DejaVuSans-34" d="M 2419 4116 
L 825 1625 
L 2419 1625 
L 2419 4116 
z
M 2253 4666 
L 3047 4666 
L 3047 1625 
L 3713 1625 
L 3713 1100 
L 3047 1100 
L 3047 0 
L 2419 0 
L 2419 1100 
L 313 1100 
L 313 1709 
L 2253 4666 
z
" transform="scale(0.015625)"/>
       </defs>
       <use xlink:href="#DejaVuSans-34"/>
       <use xlink:href="#DejaVuSans-30" transform="translate(63.623047 0)"/>
       <use xlink:href="#DejaVuSans-30" transform="translate(127.246094 0)"/>
       <use xlink:href="#DejaVuSans-30" transform="translate(190.869141 0)"/>
      </g>
     </g>
    </g>
    <g id="ytick_5">
     <g id="line2d_19">
      <path d="M 57.89 68.781541 
L 709.2 68.781541 
" clip-path="url(#pa7620acac0)" style="fill: none; stroke: #ffffff; stroke-opacity: 0.3; stroke-width: 0.8; stroke-linecap: square"/>
     </g>
     <g id="line2d_20">
      <g>
       <use xlink:href="#mefb69987c8" x="57.89" y="68.781541" style="fill: #ffffff; stroke: #ffffff; stroke-width: 0.8"/>
      </g>
     </g>
     <g id="text_11">
      <!-- 5000 -->
      <g style="fill: #ffffff" transform="translate(25.44 72.58076) scale(0.1 -0.1)">
       <use xlink:href="#DejaVuSans-35"/>
       <use xlink:href="#DejaVuSans-30" transform="translate(63.623047 0)"/>
       <use xlink:href="#DejaVuSans-30" transform="translate(127.246094 0)"/>
       <use xlink:href="#DejaVuSans-30" transform="translate(190.869141 0)"/>
      </g>
     </g>
    </g>
    <g id="text_12">
     <!-- Total Downloads -->
     <g style="fill: #ffffff" transform="translate(19.152344 205.696327) rotate(-90) scale(0.11 -0.11)">
      <defs>
       <path id="DejaVuSans-54" d="M -19 4666 
L 3928 4666 
L 3928 4134 
L 2272 4134 
L 2272 0 
L 1638 0 
L 1638 4134 
L -19 4134 
L -19 4666 
z
" transform="scale(0.015625)"/>
       <path id="DejaVuSans-6f" d="M 1959 3097 
Q 1497 3097 1228 2736 
Q 959 2375 959 1747 
Q 959 1119 1226 758 
Q 1494 397 1959 397 
Q 2419 397 2687 759 
Q 2956 1122 2956 1747 
Q 2956 2369 2687 2733 
Q 2419 3097 1959 3097 
z
M 1959 3584 
Q 2709 3584 3137 3096 
Q 3566 2609 3566 1747 
Q 3566 888 3137 398 
Q 2709 -91 1959 -91 
Q 1206 -91 779 398 
Q 353 888 353 1747 
Q 353 2609 779 3096 
Q 1206 3584 1959 3584 
z
" transform="scale(0.015625)"/>
       <path id="DejaVuSans-6c" d="M 603 4863 
L 1178 4863 
L 1178 0 
L 603 0 
L 603 4863 
z
" transform="scale(0.015625)"/>
       <path id="DejaVuSans-20" transform="scale(0.015625)"/>
       <path id="DejaVuSans-77" d="M 269 3500 
L 844 3500 
L 1563 769 
L 2278 3500 
L 2956 3500 
L 3675 769 
L 4391 3500 
L 4966 3500 
L 4050 0 
L 3372 0 
L 2619 2869 
L 1863 0 
L 1184 0 
L 269 3500 
z
" transform="scale(0.015625)"/>
       <path id="DejaVuSans-6e" d="M 3513 2113 
L 3513 0 
L 2938 0 
L 2938 2094 
Q 2938 2591 2744 2837 
Q 2550 3084 2163 3084 
Q 1697 3084 1428 2787 
Q 1159 2491 1159 1978 
L 1159 0 
L 581 0 
L 581 3500 
L 1159 3500 
L 1159 2956 
Q 1366 3272 1645 3428 
Q 1925 3584 2291 3584 
Q 2894 3584 3203 3211 
Q 3513 2838 3513 2113 
z
" transform="scale(0.015625)"/>
       <path id="DejaVuSans-64" d="M 2906 2969 
L 2906 4863 
L 3481 4863 
L 3481 0 
L 2906 0 
L 2906 525 
Q 2725 213 2448 61 
Q 2172 -91 1784 -91 
Q 1150 -91 751 415 
Q 353 922 353 1747 
Q 353 2572 751 3078 
Q 1150 3584 1784 3584 
Q 2172 3584 2448 3432 
Q 2725 3281 2906 2969 
z
M 947 1747 
Q 947 1113 1208 752 
Q 1469 391 1925 391 
Q 2381 391 2643 752 
Q 2906 1113 2906 1747 
Q 2906 2381 2643 2742 
Q 2381 3103 1925 3103 
Q 1469 3103 1208 2742 
Q 947 2381 947 1747 
z
" transform="scale(0.015625)"/>
       <path id="DejaVuSans-73" d="M 2834 3397 
L 2834 2853 
Q 2591 2978 2328 3040 
Q 2066 3103 1784 3103 
Q 1356 3103 1142 2972 
Q 928 2841 928 2578 
Q 928 2378 1081 2264 
Q 1234 2150 1697 2047 
L 1894 2003 
Q 2506 1872 2764 1633 
Q 3022 1394 3022 966 
Q 3022 478 2636 193 
Q 2250 -91 1575 -91 
Q 1294 -91 989 -36 
Q 684 19 347 128 
L 347 722 
Q 666 556 975 473 
Q 1284 391 1588 391 
Q 1994 391 2212 530 
Q 2431 669 2431 922 
Q 2431 1156 2273 1281 
Q 2116 1406 1581 1522 
L 1381 1569 
Q 847 1681 609 1914 
Q 372 2147 372 2553 
Q 372 3047 722 3315 
Q 1072 3584 1716 3584 
Q 2034 3584 2315 3537 
Q 2597 3491 2834 3397 
z
" transform="scale(0.015625)"/>
      </defs>
      <use xlink:href="#DejaVuSans-54"/>
      <use xlink:href="#DejaVuSans-6f" transform="translate(44.083984 0)"/>
      <use xlink:href="#DejaVuSans-74" transform="translate(105.265625 0)"/>
      <use xlink:href="#DejaVuSans-61" transform="translate(144.474609 0)"/>
      <use xlink:href="#DejaVuSans-6c" transform="translate(205.753906 0)"/>
      <use xlink:href="#DejaVuSans-20" transform="translate(233.537109 0)"/>
      <use xlink:href="#DejaVuSans-44" transform="translate(265.324219 0)"/>
      <use xlink:href="#DejaVuSans-6f" transform="translate(342.326172 0)"/>
      <use xlink:href="#DejaVuSans-77" transform="translate(403.507812 0)"/>
      <use xlink:href="#DejaVuSans-6e" transform="translate(485.294922 0)"/>
      <use xlink:href="#DejaVuSans-6c" transform="translate(548.673828 0)"/>
      <use xlink:href="#DejaVuSans-6f" transform="translate(576.457031 0)"/>
      <use xlink:href="#DejaVuSans-61" transform="translate(637.638672 0)"/>
      <use xlink:href="#DejaVuSans-64" transform="translate(698.917969 0)"/>
      <use xlink:href="#DejaVuSans-73" transform="translate(762.394531 0)"/>
     </g>
    </g>
   </g>
   <g id="line2d_21">
    <path d="M 87.495 268.699402 
L 95.745243 249.739764 
L 104.786371 234.545475 
L 113.173169 231.090214 
L 122.42482 225.552937 
L 130.635234 220.680133 
L 138.828579 217.623556 
L 147.016233 215.098557 
L 155.209578 211.909086 
L 163.397232 209.56128 
L 171.584887 207.434965 
L 179.778231 204.998563 
L 187.994335 197.157779 
L 196.18199 187.234978 
L 204.381024 180.235859 
L 212.574368 176.692002 
L 220.762023 175.363055 
L 228.938298 171.730601 
L 237.137332 169.737181 
L 245.353436 168.541129 
L 253.54109 168.585428 
L 261.740125 165.528851 
L 269.927779 162.738063 
L 278.115434 156.447716 
L 286.291709 155.561751 
L 294.490743 153.745524 
L 302.723916 146.746406 
L 310.911571 144.974477 
L 319.110605 141.696409 
L 327.29826 139.17141 
L 335.480224 137.089394 
L 343.650809 135.051676 
L 351.844154 132.703871 
L 360.065947 131.020538 
L 368.270671 129.160013 
L 376.464016 127.166593 
L 384.702879 126.147734 
L 392.879154 124.331507 
L 434.437617 114.275812 
L 450.209805 108.118359 
L 507.568906 82.381094 
L 564.905248 69.844698 
L 622.258659 59.656108 
L 679.595 53.099972 
" clip-path="url(#pa7620acac0)" style="fill: none; stroke: #00d4aa; stroke-width: 2.5; stroke-linecap: square"/>
    <defs>
     <path id="m76bb0b077a" d="M 0 3 
C 0.795609 3 1.55874 2.683901 2.12132 2.12132 
C 2.683901 1.55874 3 0.795609 3 0 
C 3 -0.795609 2.683901 -1.55874 2.12132 -2.12132 
C 1.55874 -2.683901 0.795609 -3 0 -3 
C -0.795609 -3 -1.55874 -2.683901 -2.12132 -2.12132 
C -2.683901 -1.55874 -3 -0.795609 -3 0 
C -3 0.795609 -2.683901 1.55874 -2.12132 2.12132 
C -1.55874 2.683901 -0.795609 3 0 3 
z
" style="stroke: #00d4aa"/>
    </defs>
    <g clip-path="url(#pa7620acac0)">
     <use xlink:href="#m76bb0b077a" x="87.495" y="268.699402" style="fill: #00d4aa; stroke: #00d4aa"/>
     <use xlink:href="#m76bb0b077a" x="95.745243" y="249.739764" style="fill: #00d4aa; stroke: #00d4aa"/>
     <use xlink:href="#m76bb0b077a" x="104.786371" y="234.545475" style="fill: #00d4aa; stroke: #00d4aa"/>
     <use xlink:href="#m76bb0b077a" x="113.173169" y="231.090214" style="fill: #00d4aa; stroke: #00d4aa"/>
     <use xlink:href="#m76bb0b077a" x="122.42482" y="225.552937" style="fill: #00d4aa; stroke: #00d4aa"/>
     <use xlink:href="#m76bb0b077a" x="130.635234" y="220.680133" style="fill: #00d4aa; stroke: #00d4aa"/>
     <use xlink:href="#m76bb0b077a" x="138.828579" y="217.623556" style="fill: #00d4aa; stroke: #00d4aa"/>
     <use xlink:href="#m76bb0b077a" x="147.016233" y="215.098557" style="fill: #00d4aa; stroke: #00d4aa"/>
     <use xlink:href="#m76bb0b077a" x="155.209578" y="211.909086" style="fill: #00d4aa; stroke: #00d4aa"/>
     <use xlink:href="#m76bb0b077a" x="163.397232" y="209.56128" style="fill: #00d4aa; stroke: #00d4aa"/>
     <use xlink:href="#m76bb0b077a" x="171.584887" y="207.434965" style="fill: #00d4aa; stroke: #00d4aa"/>
     <use xlink:href="#m76bb0b077a" x="179.778231" y="204.998563" style="fill: #00d4aa; stroke: #00d4aa"/>
     <use xlink:href="#m76bb0b077a" x="187.994335" y="197.157779" style="fill: #00d4aa; stroke: #00d4aa"/>
     <use xlink:href="#m76bb0b077a" x="196.18199" y="187.234978" style="fill: #00d4aa; stroke: #00d4aa"/>
     <use xlink:href="#m76bb0b077a" x="204.381024" y="180.235859" style="fill: #00d4aa; stroke: #00d4aa"/>
     <use xlink:href="#m76bb0b077a" x="212.574368" y="176.692002" style="fill: #00d4aa; stroke: #00d4aa"/>
     <use xlink:href="#m76bb0b077a" x="220.762023" y="175.363055" style="fill: #00d4aa; stroke: #00d4aa"/>
     <use xlink:href="#m76bb0b077a" x="228.938298" y="171.730601" style="fill: #00d4aa; stroke: #00d4aa"/>
     <use xlink:href="#m76bb0b077a" x="237.137332" y="169.737181" style="fill: #00d4aa; stroke: #00d4aa"/>
     <use xlink:href="#m76bb0b077a" x="245.353436" y="168.541129" style="fill: #00d4aa; stroke: #00d4aa"/>
     <use xlink:href="#m76bb0b077a" x="253.54109" y="168.585428" style="fill: #00d4aa; stroke: #00d4aa"/>
     <use xlink:href="#m76bb0b077a" x="261.740125" y="165.528851" style="fill: #00d4aa; stroke: #00d4aa"/>
     <use xlink:href="#m76bb0b077a" x="269.927779" y="162.738063" style="fill: #00d4aa; stroke: #00d4aa"/>
     <use xlink:href="#m76bb0b077a" x="278.115434" y="156.447716" style="fill: #00d4aa; stroke: #00d4aa"/>
     <use xlink:href="#m76bb0b077a" x="286.291709" y="155.561751" style="fill: #00d4aa; stroke: #00d4aa"/>
     <use xlink:href="#m76bb0b077a" x="294.490743" y="153.745524" style="fill: #00d4aa; stroke: #00d4aa"/>
     <use xlink:href="#m76bb0b077a" x="302.723916" y="146.746406" style="fill: #00d4aa; stroke: #00d4aa"/>
     <use xlink:href="#m76bb0b077a" x="310.911571" y="144.974477" style="fill: #00d4aa; stroke: #00d4aa"/>
     <use xlink:href="#m76bb0b077a" x="319.110605" y="141.696409" style="fill: #00d4aa; stroke: #00d4aa"/>
     <use xlink:href="#m76bb0b077a" x="327.29826" y="139.17141" style="fill: #00d4aa; stroke: #00d4aa"/>
     <use xlink:href="#m76bb0b077a" x="335.480224" y="137.089394" style="fill: #00d4aa; stroke: #00d4aa"/>
     <use xlink:href="#m76bb0b077a" x="343.650809" y="135.051676" style="fill: #00d4aa; stroke: #00d4aa"/>
     <use xlink:href="#m76bb0b077a" x="351.844154" y="132.703871" style="fill: #00d4aa; stroke: #00d4aa"/>
     <use xlink:href="#m76bb0b077a" x="360.065947" y="131.020538" style="fill: #00d4aa; stroke: #00d4aa"/>
     <use xlink:href="#m76bb0b077a" x="368.270671" y="129.160013" style="fill: #00d4aa; stroke: #00d4aa"/>
     <use xlink:href="#m76bb0b077a" x="376.464016" y="127.166593" style="fill: #00d4aa; stroke: #00d4aa"/>
     <use xlink:href="#m76bb0b077a" x="384.702879" y="126.147734" style="fill: #00d4aa; stroke: #00d4aa"/>
     <use xlink:href="#m76bb0b077a" x="392.879154" y="124.331507" style="fill: #00d4aa; stroke: #00d4aa"/>
     <use xlink:href="#m76bb0b077a" x="434.437617" y="114.275812" style="fill: #00d4aa; stroke: #00d4aa"/>
     <use xlink:href="#m76bb0b077a" x="450.209805" y="108.118359" style="fill: #00d4aa; stroke: #00d4aa"/>
     <use xlink:href="#m76bb0b077a" x="507.568906" y="82.381094" style="fill: #00d4aa; stroke: #00d4aa"/>
     <use xlink:href="#m76bb0b077a" x="564.905248" y="69.844698" style="fill: #00d4aa; stroke: #00d4aa"/>
     <use xlink:href="#m76bb0b077a" x="622.258659" y="59.656108" style="fill: #00d4aa; stroke: #00d4aa"/>
     <use xlink:href="#m76bb0b077a" x="679.595" y="53.099972" style="fill: #00d4aa; stroke: #00d4aa"/>
    </g>
   </g>
   <g id="patch_3">
    <path d="M 57.89 279.479373 
L 57.89 42.32 
" style="fill: none; stroke: #ffffff; stroke-width: 0.8; stroke-linejoin: miter; stroke-linecap: square"/>
   </g>
   <g id="patch_4">
    <path d="M 709.2 279.479373 
L 709.2 42.32 
" style="fill: none; stroke: #ffffff; stroke-width: 0.8; stroke-linejoin: miter; stroke-linecap: square"/>
   </g>
   <g id="patch_5">
    <path d="M 57.89 279.479373 
L 709.2 279.479373 
" style="fill: none; stroke: #ffffff; stroke-width: 0.8; stroke-linejoin: miter; stroke-linecap: square"/>
   </g>
   <g id="patch_6">
    <path d="M 57.89 42.32 
L 709.2 42.32 
" style="fill: none; stroke: #ffffff; stroke-width: 0.8; stroke-linejoin: miter; stroke-linecap: square"/>
   </g>
   <g id="text_13">
    <!-- 📊 Total Downloads Over Time -->
    <g style="fill: #ffffff" transform="translate(267.14 22.32) scale(0.16 -0.16)">
     <defs>
      <path id="DejaVuSans-1f4ca" d="M 319 -1131 
L 319 4513 
L 3519 4513 
L 3519 -1131 
L 319 -1131 
z
M 678 -775 
L 3163 -775 
L 3163 4153 
L 678 4153 
L 678 -775 
z
" transform="scale(0.015625)"/>
      <path id="DejaVuSans-4f" d="M 2522 4238 
Q 1834 4238 1429 3725 
Q 1025 3213 1025 2328 
Q 1025 1447 1429 934 
Q 1834 422 2522 422 
Q 3209 422 3611 934 
Q 4013 1447 4013 2328 
Q 4013 3213 3611 3725 
Q 3209 4238 2522 4238 
z
M 2522 4750 
Q 3503 4750 4090 4092 
Q 4678 3434 4678 2328 
Q 4678 1225 4090 567 
Q 3503 -91 2522 -91 
Q 1538 -91 948 565 
Q 359 1222 359 2328 
Q 359 3434 948 4092 
Q 1538 4750 2522 4750 
z
" transform="scale(0.015625)"/>
      <path id="DejaVuSans-76" d="M 191 3500 
L 800 3500 
L 1894 563 
L 2988 3500 
L 3597 3500 
L 2284 0 
L 1503 0 
L 191 3500 
z
" transform="scale(0.015625)"/>
      <path id="DejaVuSans-72" d="M 2631 2963 
Q 2534 3019 2420 3045 
Q 2306 3072 2169 3072 
Q 1681 3072 1420 2755 
Q 1159 2438 1159 1844 
L 1159 0 
L 581 0 
L 581 3500 
L 1159 3500 
L 1159 2956 
Q 1341 3275 1631 3429 
Q 1922 3584 2338 3584 
Q 2397 3584 2469 3576 
Q 2541 3569 2628 3553 
L 2631 2963 
z
" transform="scale(0.015625)"/>
      <path id="DejaVuSans-69" d="M 603 3500 
L 1178 3500 
L 1178 0 
L 603 0 
L 603 3500 
z
M 603 4863 
L 1178 4863 
L 1178 4134 
L 603 4134 
L 603 4863 
z
" transform="scale(0.015625)"/>
      <path id="DejaVuSans-6d" d="M 3328 2828 
Q 3544 3216 3844 3400 
Q 4144 3584 4550 3584 
Q 5097 3584 5394 3201 
Q 5691 2819 5691 2113 
L 5691 0 
L 5113 0 
L 5113 2094 
Q 5113 2597 4934 2840 
Q 4756 3084 4391 3084 
Q 3944 3084 3684 2787 
Q 3425 2491 3425 1978 
L 3425 0 
L 2847 0 
L 2847 2094 
Q 2847 2600 2669 2842 
Q 2491 3084 2119 3084 
Q 1678 3084 1418 2786 
Q 1159 2488 1159 1978 
L 1159 0 
L 581 0 
L 581 3500 
L 1159 3500 
L 1159 2956 
Q 1356 3278 1631 3431 
Q 1906 3584 2284 3584 
Q 2666 3584 2933 3390 
Q 3200 3197 3328 2828 
z
" transform="scale(0.015625)"/>
     </defs>
     <use xlink:href="#DejaVuSans-1f4ca"/>
     <use xlink:href="#DejaVuSans-20" transform="translate(60.009766 0)"/>
     <use xlink:href="#DejaVuSans-54" transform="translate(91.796875 0)"/>
     <use xlink:href="#DejaVuSans-6f" transform="translate(135.880859 0)"/>
     <use xlink:href="#DejaVuSans-74" transform="translate(197.0625 0)"/>
     <use xlink:href="#DejaVuSans-61" transform="translate(236.271484 0)"/>
     <use xlink:href="#DejaVuSans-6c" transform="translate(297.550781 0)"/>
     <use xlink:href="#DejaVuSans-20" transform="translate(325.333984 0)"/>
     <use xlink:href="#DejaVuSans-44" transform="translate(357.121094 0)"/>
     <use xlink:href="#DejaVuSans-6f" transform="translate(434.123047 0)"/>
     <use xlink:href="#DejaVuSans-77" transform="translate(495.304688 0)"/>
     <use xlink:href="#DejaVuSans-6e" transform="translate(577.091797 0)"/>
     <use xlink:href="#DejaVuSans-6c" transform="translate(640.470703 0)"/>
     <use xlink:href="#DejaVuSans-6f" transform="translate(668.253906 0)"/>
     <use xlink:href="#DejaVuSans-61" transform="translate(729.435547 0)"/>
     <use xlink:href="#DejaVuSans-64" transform="translate(790.714844 0)"/>
     <use xlink:href="#DejaVuSans-73" transform="translate(854.191406 0)"/>
     <use xlink:href="#DejaVuSans-20" transform="translate(906.291016 0)"/>
     <use xlink:href="#DejaVuSans-4f" transform="translate(938.078125 0)"/>
     <use xlink:href="#DejaVuSans-76" transform="translate(1016.789062 0)"/>
     <use xlink:href="#DejaVuSans-65" transform="translate(1075.96875 0)"/>
     <use xlink:href="#DejaVuSans-72" transform="translate(1137.492188 0)"/>
     <use xlink:href="#DejaVuSans-20" transform="translate(1178.605469 0)"/>
     <use xlink:href="#DejaVuSans-54" transform="translate(1210.392578 0)"/>
     <use xlink:href="#DejaVuSans-69" transform="translate(1268.351562 0)"/>
     <use xlink:href="#DejaVuSans-6d" transform="translate(1296.134766 0)"/>
     <use xlink:href="#DejaVuSans-65" transform="translate(1393.546875 0)"/>
    </g>
   </g>
   <g id="legend_1">
    <g id="patch_7">
     <path d="M 64.89 64.998125 
L 151.807187 64.998125 
Q 153.807187 64.998125 153.807187 62.998125 
L 153.807187 49.32 
Q 153.807187 47.32 151.807187 47.32 
L 64.89 47.32 
Q 62.89 47.32 62.89 49.32 
L 62.89 62.998125 
Q 62.89 64.998125 64.89 64.998125 
z
" style="opacity: 0.8; stroke: #cccccc; stroke-linejoin: miter"/>
    </g>
    <g id="line2d_22">
     <path d="M 66.89 55.418438 
L 76.89 55.418438 
L 86.89 55.418438 
" style="fill: none; stroke: #00d4aa; stroke-width: 2.5; stroke-linecap: square"/>
     <g>
      <use xlink:href="#m76bb0b077a" x="76.89" y="55.418438" style="fill: #00d4aa; stroke: #00d4aa"/>
     </g>
    </g>
    <g id="text_14">
     <!-- Downloads -->
     <g style="fill: #ffffff" transform="translate(94.89 58.918438) scale(0.1 -0.1)">
      <use xlink:href="#DejaVuSans-44"/>
      <use xlink:href="#DejaVuSans-6f" transform="translate(77.001953 0)"/>
      <use xlink:href="#DejaVuSans-77" transform="translate(138.183594 0)"/>
      <use xlink:href="#DejaVuSans-6e" transform="translate(219.970703 0)"/>
      <use xlink:href="#DejaVuSans-6c" transform="translate(283.349609 0)"/>
      <use xlink:href="#DejaVuSans-6f" transform="translate(311.132812 0)"/>
      <use xlink:href="#DejaVuSans-61" transform="translate(372.314453 0)"/>
      <use xlink:href="#DejaVuSans-64" transform="translate(433.59375 0)"/>
      <use xlink:href="#DejaVuSans-73" transform="translate(497.070312 0)"/>
     </g>
    </g>
   </g>
  </g>
 </g>
 <defs>
  <clipPath id="pa7620acac0">
   <rect x="57.89" y="42.32" width="651.31" height="237.159373"/>
  </clipPath>
 </defs>
</svg>
